# xmcd
#
# Track frame offsets:
#	150
#	18706
#	33412
#	50673
#	66137
#	84068
#	100064
#
# Disc length: 1537 seconds
#
# Revision: 0
# Processed by: cddbd v1.5.1PL0 Copyright (c) Steve Scherf et al.
# Submitted via: dBpowerAMP V4.0
#
DISCID=5005ff07
DTITLE=Redfern And Crookes - Special Delivery
DYEAR=1900
DGENRE=
TTITLE0=One More Broken Hearted Man
TTITLE1=She Is Gone
TTITLE2=Tell Rhona
TTITLE3=They Call It Honkytonk
TTITLE4=What Happened
TTITLE5=Nobody Calls Out My Name
TTITLE6=Univited Memories
EXTD=
EXTT0=
EXTT1=
EXTT2=
EXTT3=
EXTT4=
EXTT5=
EXTT6=
PLAYORDER=
